<?xml version="1.0" encoding="utf-8"?>
<!-- Generator: Adobe Illustrator 23.0.2, SVG Export Plug-In . SVG Version: 6.00 Build 0)  -->
<svg version="1.1" id="Layer_1" xmlns="http://www.w3.org/2000/svg" xmlns:xlink="http://www.w3.org/1999/xlink" x="0px" y="0px"
	 viewBox="0 0 232.4 232.6" style="enable-background:new 0 0 232.4 232.6;" xml:space="preserve">
<style type="text/css">
	.st0{fill:#F1C618;}
	.st1{fill:#FFFFFF;}
	.st2{fill:#3CBBA5;}
	.st3{clip-path:url(#SVGID_2_);fill:#F1C618;}
	.st4{clip-path:url(#SVGID_2_);}
	.st5{fill:#845231;}
	.st6{fill:#DDAA72;}
	.st7{fill:#E4E9E7;}
	.st8{fill:#6EB4A9;}
	.st9{fill:#EEB877;}
	.st10{fill:#F4C587;}
	.st11{fill:#F9F9FA;}
	.st12{fill:#281721;}
	.st13{opacity:0.6;}
	.st14{clip-path:url(#SVGID_4_);fill:#E4E9E7;}
	.st15{clip-path:url(#SVGID_6_);fill:#E4E9E7;}
	.st16{fill:#C5CBCA;}
	.st17{fill:#F2695A;}
</style>
<g>
	<defs>
		<circle id="SVGID_1_" cx="116.2" cy="116.2" r="116.2"/>
	</defs>
	<clipPath id="SVGID_2_">
		<use xlink:href="#SVGID_1_"  style="overflow:visible;"/>
	</clipPath>
	<circle class="st3" cx="116.2" cy="116.2" r="116.2"/>
	<g class="st4">
		<path class="st5" d="M72.6,99.2c0,0,3.8,34.8-7.5,45.5c0,0,25.9,8.1,51.4,8.1l-4.9-44.7L72.6,99.2z"/>
		<path class="st5" d="M160.5,99.2c0,0-3.8,34.8,7.5,45.5c0,0-25.9,8.1-51.4,8.1l4.9-44.7L160.5,99.2z"/>
	</g>
	<g class="st4">
		<path class="st6" d="M72.6,100.9c0,3.9-3.2,7.1-7.1,7.1c-3.9,0-7.1-3.2-7.1-7.1c0-3.9,3.2-7.1,7.1-7.1
			C69.4,93.7,72.6,96.9,72.6,100.9"/>
		<path class="st7" d="M25.9,200c-6,6-6,15.7,0,21.7l5.8,5.8c6,6,15.7,6,21.7,0l38.3-38.3c6-6,6-15.7,0-21.7l-5.8-5.8
			c-6-6-15.7-6-21.7,0L25.9,200z"/>
		<path class="st7" d="M207.4,200c6,6,6,15.7,0,21.7l-5.8,5.8c-6,6-15.7,6-21.7,0l-38.3-38.3c-6-6-6-15.7,0-21.7l5.8-5.8
			c6-6,15.7-6,21.7,0L207.4,200z"/>
		<path class="st1" d="M181.2,264.4c0,21.6-17.5,10.6-39,10.6H90.1c-21.6,0-39,10.9-39-10.6v-73.1c0-21.6,17.5-39,39-39h52.1
			c21.6,0,39,17.5,39,39V264.4z"/>
		<rect x="102.7" y="152.2" class="st8" width="26.9" height="122.8"/>
		<path class="st9" d="M129.5,160.3c0,5.6-4.5,10.1-10.1,10.1h-6.7c-5.6,0-10.1-4.5-10.1-10.1v-30.4c0-5.6,4.5-10.1,10.1-10.1h6.7
			c5.6,0,10.1,4.5,10.1,10.1V160.3z"/>
		<rect x="102.7" y="136.1" class="st6" width="26.8" height="7.9"/>
		<path class="st5" d="M165.1,95.2V66.9c0-26.2-21.2-47.4-47.4-47.4h-3.2c-26.2,0-47.4,21.2-47.4,47.4v28.4L165.1,95.2z"/>
		<path class="st9" d="M84.3,100.9c0,7-5.7,12.8-12.8,12.8c-7,0-12.8-5.7-12.8-12.8c0-7,5.7-12.8,12.8-12.8
			C78.6,88.1,84.3,93.8,84.3,100.9"/>
		<path class="st9" d="M173.4,100.9c0,7-5.7,12.8-12.8,12.8c-7,0-12.8-5.7-12.8-12.8c0-7,5.7-12.8,12.8-12.8
			C167.7,88.1,173.4,93.8,173.4,100.9"/>
		<path class="st6" d="M167.8,100.9c0,3.9-3.2,7.1-7.1,7.1c-3.9,0-7.1-3.2-7.1-7.1c0-3.9,3.2-7.1,7.1-7.1
			C164.6,93.7,167.8,96.9,167.8,100.9"/>
		<path class="st6" d="M78.6,100.9c0,3.9-3.2,7.1-7.1,7.1c-3.9,0-7.1-3.2-7.1-7.1c0-3.9,3.2-7.1,7.1-7.1
			C75.4,93.7,78.6,96.9,78.6,100.9"/>
		<path class="st10" d="M159.3,98c0,23.1-18.7,41.8-41.8,41.8h-2.8c-23.1,0-41.8-18.7-41.8-41.8V72.9c0-23.1,18.7-41.8,41.8-41.8
			h2.8c23.1,0,41.8,18.7,41.8,41.8V98z"/>
		<path class="st11" d="M116.1,124.8c5.5,0,9.9-4.4,9.9-9.9h-19.9C106.2,120.4,110.6,124.8,116.1,124.8"/>
		<path class="st12" d="M102,84.4c0,2.1-1.7,3.7-3.7,3.7c-2.1,0-3.7-1.7-3.7-3.7c0-2.1,1.7-3.7,3.7-3.7
			C100.3,80.6,102,82.3,102,84.4"/>
		<path class="st12" d="M137.7,84.4c0,2.1-1.7,3.7-3.7,3.7c-2.1,0-3.7-1.7-3.7-3.7c0-2.1,1.7-3.7,3.7-3.7
			C136,80.6,137.7,82.3,137.7,84.4"/>
		<path class="st9" d="M120.2,99.4c0,2.3-1.9,4.1-4.1,4.1c-2.3,0-4.1-1.9-4.1-4.1V88.5c0-2.3,1.9-4.1,4.1-4.1c2.3,0,4.1,1.9,4.1,4.1
			V99.4z"/>
		<path class="st9" d="M121.5,95.2c2.3,0,4.1,1.9,4.1,4.1c0,2.3-1.9,4.1-4.1,4.1h-10.9c-2.3,0-4.1-1.9-4.1-4.1
			c0-2.3,1.9-4.1,4.1-4.1H121.5z"/>
		<path class="st5" d="M86.6,43.5c0,0,17,22.7,72.7,22.7c0,0-0.5-41.8-44.6-41.8S86.6,43.5,86.6,43.5"/>
		<path class="st12" d="M140,72.8c0,0.9-0.7,1.6-1.6,1.6h-9c-0.9,0-1.6-0.7-1.6-1.6c0-0.9,0.7-1.6,1.6-1.6h9
			C139.3,71.2,140,71.9,140,72.8"/>
		<path class="st12" d="M104.3,72.8c0,0.9-0.7,1.6-1.6,1.6h-9c-0.9,0-1.6-0.7-1.6-1.6c0-0.9,0.7-1.6,1.6-1.6h9
			C103.6,71.2,104.3,71.9,104.3,72.8"/>
		<path class="st5" d="M72.9,88.1H76c0,0,10-30.8,10-45.6v-4.9L71.5,53.3l-1.8,17.9L72.9,88.1z"/>
		<path class="st5" d="M161,88.1h-3.1c0,0-10-30.8-10-45.6v-4.9l14.5,15.7l1.8,17.9L161,88.1z"/>
		<g class="st13">
			<g>
				<defs>
					<rect id="SVGID_3_" x="79.7" y="69.9" width="28.1" height="28.1"/>
				</defs>
				<clipPath id="SVGID_4_">
					<use xlink:href="#SVGID_3_"  style="overflow:visible;"/>
				</clipPath>
				<path class="st14" d="M107.8,84c0,7.8-6.3,14.1-14.1,14.1c-7.8,0-14.1-6.3-14.1-14.1c0-7.8,6.3-14.1,14.1-14.1
					C101.5,69.9,107.8,76.2,107.8,84"/>
			</g>
		</g>
		<g class="st13">
			<g>
				<defs>
					<rect id="SVGID_5_" x="124.4" y="69.9" width="28.1" height="28.1"/>
				</defs>
				<clipPath id="SVGID_6_">
					<use xlink:href="#SVGID_5_"  style="overflow:visible;"/>
				</clipPath>
				<path class="st15" d="M152.5,84c0,7.8-6.3,14.1-14.1,14.1s-14.1-6.3-14.1-14.1c0-7.8,6.3-14.1,14.1-14.1S152.5,76.2,152.5,84"/>
			</g>
		</g>
		<path class="st7" d="M107.4,204.8c0,8.8-7.1,15.9-15.9,15.9c-8.8,0-15.9-7.1-15.9-15.9c0-8.8,7.1-15.9,15.9-15.9
			C100.3,188.9,107.4,196,107.4,204.8"/>
		<path class="st16" d="M99.4,204.8c0,4.3-3.5,7.8-7.8,7.8c-4.3,0-7.8-3.5-7.8-7.8c0-4.3,3.5-7.8,7.8-7.8
			C95.9,197,99.4,200.5,99.4,204.8"/>
		<rect x="89.3" y="152.2" class="st16" width="4.4" height="50.4"/>
		<path class="st17" d="M152.5,196.4c0,1.6-1.3,3-3,3c-1.6,0-3-1.3-3-3v-10.9c0-1.6,1.3-3,3-3c1.6,0,3,1.3,3,3V196.4z"/>
		<rect x="142.4" y="194.6" class="st7" width="25.4" height="8"/>
	</g>
</g>
</svg>
