<?xml version="1.0" encoding="utf-8"?>
<!-- Generator: Adobe Illustrator 23.0.2, SVG Export Plug-In . SVG Version: 6.00 Build 0)  -->
<svg version="1.1" id="Layer_1" xmlns="http://www.w3.org/2000/svg" xmlns:xlink="http://www.w3.org/1999/xlink" x="0px" y="0px"
	 viewBox="0 0 204.2 204.2" style="enable-background:new 0 0 204.2 204.2;" xml:space="preserve">
<style type="text/css">
	.st0{fill:#F1C618;}
	.st1{fill:#FFFFFF;}
	.st2{fill:#3CBBA5;}
	.st3{clip-path:url(#SVGID_2_);fill:#F1C618;}
	.st4{clip-path:url(#SVGID_2_);}
	.st5{fill:#845231;}
	.st6{fill:#DDAA72;}
	.st7{fill:#E4E9E7;}
	.st8{fill:#6EB4A9;}
	.st9{fill:#EEB877;}
	.st10{fill:#F4C587;}
	.st11{fill:#F9F9FA;}
	.st12{fill:#281721;}
	.st13{opacity:0.6;}
	.st14{clip-path:url(#SVGID_4_);fill:#E4E9E7;}
	.st15{clip-path:url(#SVGID_6_);fill:#E4E9E7;}
	.st16{fill:#C5CBCA;}
	.st17{fill:#F2695A;}
</style>
<g>
	<circle class="st1" cx="102.1" cy="102.1" r="102.1"/>
	<path class="st17" d="M102.1,17.5c-46.7,0-84.6,37.9-84.6,84.6c0,46.7,37.9,84.6,84.6,84.6c46.7,0,84.6-37.9,84.6-84.6
		C186.6,55.4,148.8,17.5,102.1,17.5z M146.7,84l-49.2,49.2c-1.8,1.8-4.1,2.7-6.5,2.7c-2.4,0-4.7-0.9-6.5-2.7l-26.9-26.9
		c-3.6-3.6-3.6-9.4,0-13c3.6-3.6,9.4-3.6,13,0L91,113.7L133.7,71c3.6-3.6,9.4-3.6,13,0C150.2,74.6,150.2,80.4,146.7,84z"/>
</g>
</svg>
