<?xml version="1.0" encoding="utf-8"?>
<!-- Generator: Adobe Illustrator 23.0.2, SVG Export Plug-In . SVG Version: 6.00 Build 0)  -->
<svg version="1.1" id="Layer_1" xmlns="http://www.w3.org/2000/svg" xmlns:xlink="http://www.w3.org/1999/xlink" x="0px" y="0px"
	 viewBox="0 0 300 140" style="enable-background:new 0 0 300 140;" xml:space="preserve">
<style type="text/css">
	.st0{fill:#F1C618;}
	.st1{fill:#FFFFFF;}
	.st2{fill:#3CBBA5;}
</style>
<g>
	<circle class="st0" cx="61" cy="68.8" r="34.9"/>
	<g>
		<path class="st1" d="M36.1,52.3h7.1l6.8,12.3l6.7-12.3H64l1.3,28.2h-7.6L57.1,64l-4.9,9.6H48L42.5,64L42,80.5h-7.2L36.1,52.3z"/>
		<path class="st1" d="M70.7,82.8c0.4,0.3,0.8,0.5,1.4,0.7c0.5,0.2,1,0.3,1.4,0.3c0.6,0,1.2-0.1,1.6-0.4c0.4-0.2,0.8-0.8,1.1-1.6
			l0.6-1.6l-9.2-19.6h8.1l4.2,11.5l4-11.5h7.4l-7.9,19.6c-0.5,1.2-1,2.4-1.5,3.5c-0.5,1.1-1.1,2.1-1.8,2.9c-0.7,0.8-1.5,1.5-2.5,2
			c-1,0.5-2.2,0.8-3.7,0.8c-1,0-2.1-0.1-3-0.4c-1-0.3-1.9-0.8-2.8-1.4L70.7,82.8z"/>
	</g>
	<g>
		<path class="st2" d="M115.3,97.9h-5.1v-1.3h6.5v7.2c-0.3,0.3-0.7,0.6-1.2,0.8c-0.5,0.3-1,0.5-1.6,0.8s-1.3,0.4-2,0.5
			c-0.8,0.1-1.6,0.2-2.5,0.2c-1.4,0-2.6-0.2-3.8-0.7c-1.1-0.5-2.1-1.2-2.9-2.1c-0.8-0.9-1.4-2-1.9-3.2c-0.4-1.2-0.7-2.6-0.7-4.1
			c0-1.4,0.2-2.7,0.7-3.9c0.4-1.2,1.1-2.3,1.9-3.2c0.8-0.9,1.8-1.6,2.9-2.1c1.1-0.5,2.4-0.8,3.8-0.8c1.1,0,2.1,0.2,2.9,0.5
			c0.8,0.3,1.5,0.7,2.1,1.1c0.6,0.4,1,0.8,1.3,1.2c0.3,0.4,0.5,0.7,0.6,0.9l-1,0.7c-0.1-0.2-0.3-0.4-0.6-0.7c-0.3-0.3-0.6-0.7-1.1-1
			c-0.5-0.3-1-0.6-1.7-0.9c-0.7-0.3-1.5-0.4-2.4-0.4c-1.2,0-2.4,0.2-3.3,0.7c-1,0.4-1.8,1.1-2.5,1.8c-0.7,0.8-1.2,1.7-1.6,2.8
			c-0.4,1.1-0.5,2.2-0.5,3.4s0.2,2.4,0.5,3.4c0.4,1.1,0.9,2,1.5,2.8c0.7,0.8,1.5,1.4,2.5,1.9c1,0.5,2.1,0.7,3.3,0.7
			c1.5,0,2.7-0.2,3.6-0.5c0.9-0.3,1.7-0.7,2.3-1.1V97.9z"/>
		<path class="st2" d="M120.9,92.5h1.3v7.3c0,1,0.1,1.8,0.2,2.4c0.2,0.7,0.4,1.2,0.7,1.5s0.7,0.7,1.2,0.8c0.5,0.2,1,0.2,1.7,0.2
			c0.8,0,1.5-0.2,2.2-0.5c0.6-0.3,1.1-0.8,1.5-1.3c0.4-0.5,0.7-1.1,0.9-1.8c0.2-0.7,0.3-1.3,0.3-1.9v-6.8h1.3v10.4
			c0,0.4,0,0.7,0,0.9c0,0.2,0,0.5,0,0.7c0,0.2,0,0.4,0,0.6s0,0.4,0,0.6H131c0-0.2,0-0.4,0-0.6c0-0.2,0-0.4,0-0.6c0-0.2,0-0.4,0-0.7
			c0-0.2,0-0.6,0-0.9c-0.2,0.3-0.4,0.6-0.6,1c-0.3,0.4-0.6,0.7-1,1c-0.4,0.3-0.9,0.6-1.4,0.8c-0.6,0.2-1.2,0.3-2,0.3
			c-0.9,0-1.7-0.1-2.4-0.4c-0.6-0.3-1.1-0.7-1.5-1.2c-0.4-0.5-0.7-1.1-0.8-1.8c-0.2-0.7-0.2-1.5-0.2-2.4V92.5z"/>
		<path class="st2" d="M135.9,87.9h1.8v1.9h-1.8V87.9z M136.2,92.5h1.3v13.2h-1.3V92.5z"/>
		<path class="st2" d="M151.7,105.7c0-0.2,0-0.5,0-0.7c0-0.2,0-0.5,0-0.7s0-0.5,0-0.8c-0.3,0.5-0.7,0.9-1.1,1.3
			c-0.4,0.3-0.9,0.6-1.5,0.9c-0.6,0.3-1.3,0.4-2.2,0.4c-1,0-1.9-0.2-2.6-0.5s-1.4-0.8-1.9-1.4c-0.5-0.6-0.9-1.3-1.1-2.2
			c-0.2-0.8-0.4-1.7-0.4-2.7c0-1.1,0.2-2,0.5-2.9c0.3-0.9,0.8-1.6,1.4-2.2c0.6-0.6,1.3-1.1,2.2-1.4c0.8-0.3,1.7-0.5,2.7-0.5
			c0.6,0,1.1,0.1,1.5,0.2c0.5,0.1,0.9,0.3,1.3,0.4c0.4,0.2,0.8,0.4,1.2,0.6v-6.9h1.3v16.4c0,0.4,0,0.7,0,1.1c0,0.3,0,0.6,0,0.9
			c0,0.3,0,0.6,0,0.8H151.7z M151.6,94.8c-0.3-0.3-0.6-0.5-1-0.7c-0.3-0.2-0.7-0.4-1.3-0.5c-0.5-0.2-1.1-0.2-1.8-0.2
			c-0.7,0-1.4,0.1-2,0.3c-0.6,0.2-1.2,0.6-1.7,1c-0.5,0.5-0.9,1.1-1.2,1.8c-0.3,0.7-0.5,1.6-0.5,2.7c0,0.7,0.1,1.5,0.3,2.1
			c0.2,0.7,0.4,1.3,0.8,1.8c0.4,0.5,0.9,0.9,1.4,1.2c0.6,0.3,1.3,0.5,2.2,0.5c0.8,0,1.5-0.1,2.1-0.4c0.6-0.3,1.1-0.7,1.5-1.1
			c0.4-0.4,0.7-0.9,0.9-1.4s0.3-0.9,0.3-1.3V94.8z"/>
		<path class="st2" d="M168.4,103.7c-0.6,0.7-1.4,1.3-2.3,1.7c-1,0.4-2,0.6-3,0.6c-1,0-1.9-0.2-2.7-0.5c-0.8-0.3-1.5-0.8-2.1-1.4
			c-0.6-0.6-1.1-1.3-1.4-2.2c-0.3-0.9-0.5-1.8-0.5-2.8c0-1,0.2-1.9,0.5-2.7s0.8-1.6,1.3-2.2c0.6-0.6,1.2-1.1,2-1.5s1.6-0.5,2.6-0.5
			c0.9,0,1.7,0.2,2.5,0.5s1.4,0.8,2,1.4c0.6,0.6,1,1.4,1.3,2.3s0.5,2,0.5,3.1h-11.2c0,0.7,0.2,1.4,0.4,2.1c0.3,0.7,0.6,1.2,1.1,1.7
			c0.5,0.5,1,0.9,1.6,1.1c0.6,0.3,1.4,0.4,2.1,0.4c0.4,0,0.8,0,1.2-0.1c0.4-0.1,0.8-0.2,1.2-0.4c0.4-0.2,0.8-0.4,1.1-0.6
			s0.6-0.5,0.8-0.8L168.4,103.7z M167.5,98.3c-0.2-1.6-0.7-2.9-1.5-3.7c-0.9-0.8-2-1.3-3.4-1.3c-0.7,0-1.4,0.1-1.9,0.4
			s-1.1,0.6-1.5,1.1s-0.8,1-1,1.6c-0.3,0.6-0.4,1.2-0.4,1.9H167.5z"/>
	</g>
	<g>
		<path class="st2" d="M100.5,52.3h11.7c1.5,0,2.9,0.2,4.1,0.6s2.3,1,3.1,1.8c0.9,0.8,1.5,1.7,2,2.9c0.5,1.2,0.7,2.5,0.7,4
			c0,1.9-0.4,3.5-1.2,4.8c-0.8,1.4-1.9,2.5-3.3,3.3l6,10.8h-8l-4.8-9.6h-3.1v9.6h-7.3V52.3z M111.5,65.1c1,0,1.8-0.3,2.4-0.9
			c0.6-0.6,0.9-1.4,0.9-2.4c0-1.1-0.3-1.9-0.9-2.5c-0.6-0.6-1.4-0.9-2.5-0.9h-3.6v6.8H111.5z"/>
		<path class="st2" d="M144,79.1c-0.3,0.2-0.8,0.4-1.3,0.7c-0.5,0.2-1.1,0.5-1.8,0.7c-0.7,0.2-1.5,0.4-2.4,0.5
			c-0.9,0.2-1.8,0.2-2.8,0.2c-3.7,0-6.5-0.9-8.4-2.8c-1.9-1.8-2.9-4.4-2.9-7.8c0-1.3,0.2-2.6,0.6-3.9c0.4-1.3,1.1-2.4,1.9-3.4
			c0.9-1,1.9-1.8,3.3-2.4s2.8-0.9,4.6-0.9c1.4,0,2.6,0.2,3.8,0.7c1.2,0.5,2.2,1.2,3.1,2.1s1.6,2.1,2.1,3.5c0.5,1.4,0.8,3.1,0.8,5
			v1.4h-13.4c0,0.3,0.1,0.7,0.3,1.1c0.2,0.4,0.4,0.7,0.8,1s0.9,0.6,1.5,0.8c0.6,0.2,1.4,0.3,2.3,0.3c1.2,0,2.3-0.2,3.3-0.5
			c1-0.3,1.8-0.6,2.3-1L144,79.1z M138.3,68.5c0-0.3-0.1-0.7-0.2-1.1c-0.1-0.4-0.4-0.7-0.7-1c-0.3-0.3-0.7-0.6-1.1-0.8
			c-0.4-0.2-1-0.3-1.6-0.3c-0.6,0-1.1,0.1-1.6,0.3c-0.5,0.2-0.8,0.5-1.1,0.8c-0.3,0.3-0.5,0.6-0.6,1c-0.1,0.4-0.2,0.7-0.2,1.1H138.3
			z"/>
		<path class="st2" d="M165.9,77.9c-0.4,0.4-0.8,0.8-1.4,1.2c-0.5,0.4-1.1,0.7-1.8,1.1s-1.5,0.6-2.3,0.7c-0.8,0.2-1.8,0.3-2.7,0.3
			c-1.5,0-2.9-0.3-4.2-0.8c-1.3-0.5-2.5-1.2-3.4-2.2c-1-0.9-1.7-2-2.3-3.4c-0.5-1.3-0.8-2.8-0.8-4.4c0-1.5,0.3-2.9,0.8-4.2
			S149,64,150,63c1-1,2.1-1.7,3.4-2.2c1.3-0.5,2.7-0.8,4.2-0.8c2,0,3.6,0.3,5,0.9c1.3,0.6,2.4,1.4,3.3,2.4l-4.2,4.8
			c-0.3-0.4-0.7-0.8-1.3-1.2c-0.6-0.4-1.4-0.6-2.5-0.6c-1,0-1.9,0.4-2.6,1.2c-0.8,0.8-1.1,1.8-1.1,3.1c0,0.6,0.1,1.2,0.3,1.8
			c0.2,0.5,0.5,1,0.8,1.4c0.3,0.4,0.7,0.7,1.2,0.9c0.5,0.2,0.9,0.3,1.4,0.3c0.5,0,1-0.1,1.4-0.2c0.4-0.1,0.8-0.3,1.1-0.5
			c0.3-0.2,0.6-0.4,0.8-0.6c0.2-0.2,0.4-0.4,0.5-0.5L165.9,77.9z"/>
		<path class="st2" d="M166.7,70.6c0-1.5,0.3-2.8,0.8-4.1c0.5-1.3,1.2-2.4,2.2-3.4c0.9-1,2-1.7,3.3-2.3c1.3-0.5,2.7-0.8,4.3-0.8
			c1.6,0,3,0.3,4.3,0.8c1.3,0.5,2.4,1.3,3.3,2.3c0.9,1,1.7,2.1,2.2,3.4c0.5,1.3,0.8,2.7,0.8,4.1c0,1.5-0.3,2.9-0.8,4.2
			c-0.5,1.3-1.2,2.4-2.2,3.4c-0.9,1-2,1.7-3.3,2.3c-1.3,0.5-2.7,0.8-4.3,0.8c-1.6,0-3-0.3-4.3-0.8c-1.3-0.5-2.4-1.3-3.3-2.3
			c-0.9-1-1.7-2.1-2.2-3.4C166.9,73.5,166.7,72.1,166.7,70.6z M177.3,74.9c1.2,0,2.1-0.4,2.8-1.2c0.7-0.8,1.1-1.9,1.1-3.1
			s-0.4-2.3-1.1-3.1c-0.7-0.8-1.6-1.2-2.8-1.2c-1.2,0-2.1,0.4-2.8,1.2c-0.7,0.8-1.1,1.9-1.1,3.1s0.4,2.3,1.1,3.1
			C175.2,74.5,176.1,74.9,177.3,74.9z"/>
		<path class="st2" d="M188.1,60.7h7.8l4.1,11.9l3.8-11.9h7.8l-8.6,19.9h-6.4L188.1,60.7z"/>
		<path class="st2" d="M231.2,79.1c-0.3,0.2-0.8,0.4-1.3,0.7c-0.5,0.2-1.1,0.5-1.8,0.7c-0.7,0.2-1.5,0.4-2.4,0.5
			c-0.9,0.2-1.8,0.2-2.8,0.2c-3.7,0-6.5-0.9-8.4-2.8c-1.9-1.8-2.9-4.4-2.9-7.8c0-1.3,0.2-2.6,0.6-3.9c0.4-1.3,1.1-2.4,1.9-3.4
			c0.9-1,1.9-1.8,3.3-2.4c1.3-0.6,2.8-0.9,4.6-0.9c1.4,0,2.6,0.2,3.8,0.7s2.2,1.2,3.1,2.1c0.9,0.9,1.6,2.1,2.1,3.5
			c0.5,1.4,0.8,3.1,0.8,5v1.4h-13.4c0,0.3,0.1,0.7,0.3,1.1c0.2,0.4,0.4,0.7,0.8,1c0.4,0.3,0.9,0.6,1.5,0.8c0.6,0.2,1.4,0.3,2.3,0.3
			c1.2,0,2.3-0.2,3.3-0.5c1-0.3,1.8-0.6,2.3-1L231.2,79.1z M225.5,68.5c0-0.3-0.1-0.7-0.2-1.1c-0.1-0.4-0.4-0.7-0.7-1
			c-0.3-0.3-0.7-0.6-1.1-0.8c-0.4-0.2-1-0.3-1.6-0.3c-0.6,0-1.1,0.1-1.6,0.3c-0.5,0.2-0.8,0.5-1.1,0.8c-0.3,0.3-0.5,0.6-0.6,1
			c-0.1,0.4-0.2,0.7-0.2,1.1H225.5z"/>
		<path class="st2" d="M235,60.7h6.9l0.3,2.5c0.6-0.8,1.3-1.5,2.1-2c0.8-0.5,1.8-0.8,3-0.8c0.6,0,1,0,1.5,0.1
			c0.4,0.1,0.8,0.1,1.1,0.3l-0.9,6.1c-0.7-0.2-1.4-0.3-2.1-0.3c-3.1,0-4.6,1.7-4.6,5.1v8.9H235V60.7z"/>
		<path class="st2" d="M253.4,82.8c0.4,0.3,0.8,0.5,1.4,0.7c0.5,0.2,1,0.3,1.4,0.3c0.6,0,1.2-0.1,1.6-0.4c0.4-0.2,0.8-0.8,1.1-1.6
			l0.6-1.6l-9.2-19.6h8.1l4.2,11.5l4-11.5h7.4l-7.9,19.6c-0.5,1.2-1,2.4-1.5,3.5c-0.5,1.1-1.1,2.1-1.8,2.9c-0.7,0.8-1.5,1.5-2.5,2
			c-1,0.5-2.2,0.8-3.7,0.8c-1,0-2.1-0.1-3-0.4s-1.9-0.8-2.8-1.4L253.4,82.8z"/>
	</g>
</g>
</svg>
